<?xml version="1.0" standalone="no"?><!DOCTYPE svg PUBLIC "-//W3C//DTD SVG 1.1//EN" "http://www.w3.org/Graphics/SVG/1.1/DTD/svg11.dtd"><svg t="1555551436116" class="icon" style="" viewBox="0 0 1024 1024" version="1.1" xmlns="http://www.w3.org/2000/svg" p-id="1607" xmlns:xlink="http://www.w3.org/1999/xlink" width="200" height="200"><defs><style type="text/css"></style></defs><path d="M796.444444 398.222222c0 28.444444-28.444444 56.888889-56.888888 56.888889h-170.666667v56.888889h113.777778c28.444444 0 56.888889 28.444444 56.888889 56.888889s-28.444444 56.888889-56.888889 56.888889h-113.777778v56.888889c0 28.444444-28.444444 56.888889-56.888889 56.888889s-56.888889-28.444444-56.888889-56.888889v-56.888889H341.333333c-28.444444 0-56.888889-28.444444-56.888889-56.888889s28.444444-56.888889 56.888889-56.888889h113.777778V455.111111H284.444444c-28.444444 0-56.888889-22.755556-56.888888-56.888889s28.444444-56.888889 56.888888-56.888889h96.711112L312.888889 267.377778c-22.755556-22.755556-22.755556-56.888889 0-79.644445 22.755556-22.755556 56.888889-22.755556 79.644444 0l125.155556 125.155556 125.155555-125.155556c22.755556-22.755556 56.888889-22.755556 79.644445 0 22.755556 22.755556 22.755556 56.888889 0 79.644445L648.533333 341.333333H739.555556c28.444444 0 56.888889 28.444444 56.888888 56.888889z" p-id="1608"></path><path d="M512 1024c-11.377778 0-28.444444-5.688889-39.822222-11.377778L284.444444 870.4l-182.044444 136.533333c-22.755556 17.066667-45.511111 17.066667-68.266667 5.688889-22.755556-11.377778-34.133333-34.133333-34.133333-56.888889V170.666667c0-96.711111 73.955556-170.666667 170.666667-170.666667h682.666666c96.711111 0 170.666667 73.955556 170.666667 170.666667v785.066666c0 22.755556-11.377778 45.511111-34.133333 56.888889-22.755556 11.377778-45.511111 11.377778-68.266667-5.688889L739.555556 870.4l-187.733334 142.222222c-11.377778 5.688889-28.444444 11.377778-39.822222 11.377778z m-227.555556-284.444444c11.377778 0 28.444444 5.688889 39.822223 11.377777L512 898.844444l187.733333-142.222222c22.755556-17.066667 51.2-17.066667 73.955556 0L910.222222 853.333333V170.666667c0-34.133333-22.755556-56.888889-56.888889-56.888889H170.666667c-34.133333 0-56.888889 28.444444-56.888889 56.888889v682.666666l130.844444-102.4c11.377778-5.688889 28.444444-11.377778 39.822222-11.377777z m-28.444444 108.088888z m455.111111 0z m62.577778 0c-5.688889 0-5.688889 0 0 0z m-455.111111 0c-5.688889 0-5.688889 0 0 0z" p-id="1609"></path></svg>